#N canvas 1440 22 3440 1396 10;
#X obj 1043 516 dac~;
#X obj 729 49 r note;
#X obj 1276 51 r noteOn;
#X obj 1333 30 r noteOff;
#X obj 729 110 mtof;
#X obj 984 443 *~;
#X obj 1059 386 r master_volume;
#X obj 1044 491 *~;
#X msg 859 88 2;
#X floatatom 852 108 5 0.1 16 0 - - -, f 5;
#X floatatom 729 129 5 0 0 0 - - -, f 5;
#X floatatom 1059 470 5 0 0 0 - - -, f 5;
#X obj 1128 50 r modulation;
#X floatatom 1127 110 5 0 1000 0 - - -, f 5;
#X msg 736 88 62;
#X obj 852 49 r harmonicity;
#X text 1125 28 Amount of modulation;
#X text 850 28 Multiply modulator frequency by this value;
#X obj 852 128 s m_freq_mult;
#X obj 1127 131 s n_mod_gain;
#X obj 859 67 loadbang;
#X obj 1138 69 loadbang;
#X obj 1067 428 loadbang;
#X msg 1067 449 0.5;
#X text 1057 366 Master Volume Control;
#X text 1278 29 ADSR;
#X obj 1340 50 loadbang;
#X obj 736 68 loadbang;
#X text 726 28 Note to frequency;
#X obj 729 148 s base_freq;
#X obj 984 322 r base_freq;
#X obj 984 394 osc~;
#X obj 729 272 osc~;
#X obj 729 208 r base_freq;
#X text 726 186 Modulator;
#X obj 744 228 r m_freq_mult;
#X obj 729 313 *~;
#X obj 744 292 r n_mod_gain;
#X obj 729 249 *~;
#X msg 1138 89 100;
#X obj 984 370 +~;
#X text 982 301 Engine;
#X obj 1315 95 line~;
#X msg 1276 72 1 250;
#X msg 1333 72 0 250;
#X connect 1 0 4 0;
#X connect 2 0 43 0;
#X connect 3 0 44 0;
#X connect 4 0 10 0;
#X connect 5 0 7 0;
#X connect 6 0 11 0;
#X connect 7 0 0 0;
#X connect 7 0 0 1;
#X connect 8 0 9 0;
#X connect 9 0 18 0;
#X connect 10 0 29 0;
#X connect 11 0 7 1;
#X connect 12 0 13 0;
#X connect 13 0 19 0;
#X connect 14 0 4 0;
#X connect 15 0 9 0;
#X connect 20 0 8 0;
#X connect 21 0 39 0;
#X connect 22 0 23 0;
#X connect 23 0 11 0;
#X connect 26 0 44 0;
#X connect 27 0 14 0;
#X connect 30 0 40 1;
#X connect 31 0 5 0;
#X connect 32 0 36 0;
#X connect 33 0 38 0;
#X connect 35 0 38 1;
#X connect 36 0 40 0;
#X connect 37 0 36 1;
#X connect 38 0 32 0;
#X connect 39 0 13 0;
#X connect 40 0 31 0;
#X connect 42 0 5 1;
#X connect 43 0 42 0;
#X connect 44 0 42 0;
