#N canvas 1440 22 3440 1396 10;
#X obj 290 265 dac~;
#X obj 729 49 r note;
#X obj 1276 51 r noteOn;
#X obj 1333 30 r noteOff;
#X obj 729 110 mtof;
#X obj 231 192 *~;
#X msg 1276 72 1 500;
#X msg 1333 72 0 500;
#X obj 306 135 r master_volume;
#X obj 291 240 *~;
#X obj 306 157 clip 0 1;
#X msg 859 88 2;
#X floatatom 852 108 5 0.1 16 0 - - -, f 5;
#X floatatom 729 129 5 0 0 0 - - -, f 5;
#X floatatom 306 219 5 0 0 0 - - -, f 5;
#X obj 1128 50 r modulation;
#X floatatom 1127 110 5 0 1000 0 - - -, f 5;
#X msg 736 88 62;
#X obj 852 49 r harmonicity;
#X text 1125 28 Amount of modulation;
#X text 850 28 Multiply modulator frequency by this value;
#X obj 852 128 s m_freq_mult;
#X obj 1127 131 s n_mod_gain;
#X obj 859 67 loadbang;
#X obj 1138 69 loadbang;
#X obj 314 177 loadbang;
#X msg 314 198 0.5;
#X text 304 115 Master Volume Control;
#X text 1278 29 ADSR;
#X obj 1340 50 loadbang;
#X obj 1315 117 s adsr;
#X obj 1315 95 line;
#X obj 246 168 r adsr;
#X obj 736 68 loadbang;
#X text 726 28 Note to frequency;
#X obj 729 148 s base_freq;
#X obj 231 71 r base_freq;
#X obj 231 143 osc~;
#X obj 729 272 osc~;
#X obj 729 208 r base_freq;
#X text 726 186 Modulator;
#X obj 744 228 r m_freq_mult;
#X obj 729 336 s~ modulator_output;
#X obj 246 93 r~ modulator_output;
#X obj 729 313 *~;
#X obj 744 292 r n_mod_gain;
#X obj 729 249 *~;
#X msg 1138 89 100;
#X obj 231 119 +~;
#X text 229 50 Engine;
#X connect 1 0 4 0;
#X connect 2 0 6 0;
#X connect 3 0 7 0;
#X connect 4 0 13 0;
#X connect 5 0 9 0;
#X connect 6 0 31 0;
#X connect 7 0 31 0;
#X connect 8 0 10 0;
#X connect 9 0 0 0;
#X connect 9 0 0 1;
#X connect 10 0 14 0;
#X connect 11 0 12 0;
#X connect 12 0 21 0;
#X connect 13 0 35 0;
#X connect 14 0 9 1;
#X connect 15 0 16 0;
#X connect 16 0 22 0;
#X connect 17 0 4 0;
#X connect 18 0 12 0;
#X connect 23 0 11 0;
#X connect 24 0 47 0;
#X connect 25 0 26 0;
#X connect 26 0 14 0;
#X connect 29 0 7 0;
#X connect 31 0 30 0;
#X connect 32 0 5 1;
#X connect 33 0 17 0;
#X connect 36 0 48 0;
#X connect 37 0 5 0;
#X connect 38 0 44 0;
#X connect 39 0 46 0;
#X connect 41 0 46 1;
#X connect 43 0 48 1;
#X connect 44 0 42 0;
#X connect 45 0 44 1;
#X connect 46 0 38 0;
#X connect 47 0 16 0;
#X connect 48 0 37 0;
