#N canvas 0 0 3408 1330 10;
#X obj 992 676 cnv 15 1093 507 empty empty empty 20 12 0 14 -183040
-66577 0;
#X obj 635 514 cnv 15 349 670 empty empty empty 20 12 0 14 -162590
-66577 0;
#X obj 633 259 cnv 15 352 251 empty empty empty 20 12 0 14 -200704
-66577 0;
#X obj 992 259 cnv 15 210 410 empty empty empty 20 12 0 14 -260844
-66577 0;
#X obj 21 516 cnv 15 602 438 empty empty empty 20 12 0 14 -1 -66577
0;
#X obj 1648 9 cnv 15 342 438 empty empty empty 20 12 0 14 -260572 -66577
0;
#X obj 634 5 cnv 15 569 248 empty empty empty 20 12 0 14 -260928 -66577
0;
#X obj 1208 3 cnv 15 170 666 empty empty empty 20 12 0 14 -163816 -66577
0;
#X obj 1382 5 cnv 15 261 664 empty empty empty 20 12 0 14 -262125 -66577
0;
#X obj 1015 973 r oscillator2_frequency;
#X obj 35 537 cnv 15 449 285 empty empty empty 20 12 0 14 -233017 -66577
0;
#X floatatom 81 664 5 0 0 0 - - -, f 5;
#X floatatom 88 733 5 0 0 0 - - -, f 5;
#X floatatom 214 664 5 0 0 0 - - -, f 5;
#X floatatom 280 664 5 0 0 0 - - -, f 5;
#X obj 81 638 route NoteOn NoteOff Modulation Harmonicity MasterVolume
;
#X floatatom 347 664 5 0 0 0 - - -, f 5;
#X obj 108 606 print received;
#X obj 123 693 unpack f f s f;
#X floatatom 246 733 5 0 0 0 - - -, f 5;
#X floatatom 125 777 5 0 0 0 - - -, f 5;
#X symbolatom 163 747 10 0 0 0 - - -, f 10;
#X obj 1669 278 dac~;
#X obj 1685 80 r master_volume;
#X obj 1669 247 *~;
#X floatatom 1685 145 5 0 0 0 - - -, f 5;
#X obj 1692 102 loadbang;
#X text 1675 57 Master Volume Control;
#X obj 1014 281 r~ oscillator1;
#X obj 1029 396 r~ oscillator2;
#X msg 1685 167 \$1 20;
#X obj 1685 190 line~;
#X obj 1685 218 *~;
#X obj 1707 314 vu 15 120 empty empty -1 -8 0 10 -66577 -1 1 0;
#X obj 1717 278 pvu~;
#X obj 1100 40 tgl 15 0 empty empty empty 17 7 0 10 -262144 -1 -1 1
1;
#X obj 1100 60 dsp;
#X floatatom 1100 83 5 0 0 0 - - -, f 5;
#X text 1136 83 % CPU;
#X obj 1014 371 *~;
#X obj 1029 485 *~;
#X obj 664 162 hsl 128 15 0 1 0 0 empty empty empty -2 -8 0 10 -262144
-1 -1 10160 1;
#X floatatom 664 182 5 0 0 0 - - -, f 5;
#X msg 1692 123 1;
#X obj 664 225 s oscillator1_volume;
#X obj 1029 303 r oscillator1_volume;
#X obj 1029 347 line~;
#X msg 1029 325 \$1 20;
#X obj 818 162 hsl 128 15 0 1 0 0 empty empty empty -2 -8 0 10 -262144
-1 -1 10160 1;
#X floatatom 818 182 5 0 0 0 - - -, f 5;
#X obj 818 225 s oscillator2_volume;
#X obj 1044 462 line~;
#X msg 1044 440 \$1 20;
#X obj 1044 418 r oscillator2_volume;
#X obj 1014 509 +~;
#X obj 664 203 *;
#X obj 818 203 *;
#X obj 639 365 mtof;
#X obj 1243 436 moog~;
#X obj 1017 729 phasor~;
#X obj 1015 1039 phasor~;
#X obj 789 365 mtof;
#X obj 651 86 s master_volume;
#X obj 1014 594 s~ mixer;
#X obj 1668 33 r~ filter;
#X obj 1243 280 r~ mixer;
#X obj 1257 303 r cutoff;
#X msg 1257 324 \$1 20;
#X obj 1257 345 line~;
#X obj 1271 366 r resonance;
#X msg 1271 389 \$1 20;
#X obj 1271 412 line~;
#X obj 1224 68 hsl 128 15 200 20000 1 0 empty empty empty -2 -8 0 10
-262144 -1 -1 8877 1;
#X obj 1224 107 s cutoff;
#X obj 1222 194 hsl 128 15 0 4 0 0 empty empty empty -2 -8 0 10 -262144
-1 -1 3175 1;
#X obj 1222 236 s resonance;
#X floatatom 1224 87 5 0 0 0 - - -, f 5;
#X floatatom 1222 215 5 0 0 0 - - -, f 5;
#N canvas 0 0 450 300 (subpatch) 0;
#X array SCOPE 500 float 5 black black;
#A 0 0 0 0 0 0 0 0 0 0 0 0 0 0 0 0 0 0 0 0 0 0 0 0 0 0 0 0 0 0 0 0
0 0 0 0 0 0 0 0 0 0 0 0 0 0 0 0 0 0 0 0 0 0 0 0 0 0 0 0 0 0 0 0 0 0
0 0 0 0 0 0 0 0 0 0 0 0 0 0 0 0 0 0 0 0 0 0 0 0 0 0 0 0 0 0 0 0 0 0
0 0 0 0 0 0 0 0 0 0 0 0 0 0 0 0 0 0 0 0 0 0 0 0 0 0 0 0 0 0 0 0 0 0
0 0 0 0 0 0 0 0 0 0 0 0 0 0 0 0 0 0 0 0 0 0 0 0 0 0 0 0 0 0 0 0 0 0
0 0 0 0 0 0 0 0 0 0 0 0 0 0 0 0 0 0 0 0 0 0 0 0 0 0 0 0 0 0 0 0 0 0
0 0 0 0 0 0 0 0 0 0 0 0 0 0 0 0 0 0 0 0 0 0 0 0 0 0 0 0 0 0 0 0 0 0
0 0 0 0 0 0 0 0 0 0 0 0 0 0 0 0 0 0 0 0 0 0 0 0 0 0 0 0 0 0 0 0 0 0
0 0 0 0 0 0 0 0 0 0 0 0 0 0 0 0 0 0 0 0 0 0 0 0 0 0 0 0 0 0 0 0 0 0
0 0 0 0 0 0 0 0 0 0 0 0 0 0 0 0 0 0 0 0 0 0 0 0 0 0 0 0 0 0 0 0 0 0
0 0 0 0 0 0 0 0 0 0 0 0 0 0 0 0 0 0 0 0 0 0 0 0 0 0 0 0 0 0 0 0 0 0
0 0 0 0 0 0 0 0 0 0 0 0 0 0 0 0 0 0 0 0 0 0 0 0 0 0 0 0 0 0 0 0 0 0
0 0 0 0 0 0 0 0 0 0 0 0 0 0 0 0 0 0 0 0 0 0 0 0 0 0 0 0 0 0 0 0 0 0
0 0 0 0 0 0 0 0 0 0 0 0 0 0 0 0 0 0 0 0 0 0 0 0 0 0 0 0 0 0 0 0 0 0
0 0 0 0 0 0 0 0 0 0 0 0 0 0 0 0 0 0 0 0 0 0 0 0 0 0 0;
#X coords 0 1 499 -1 600 480 1;
#X restore 18 19 graph;
#X obj 1811 228 tgl 15 0 empty empty empty 17 7 0 10 -262144 -1 -1
1 1;
#X obj 1794 256 metro 50;
#X obj 1839 115 vsl 15 128 0 127 0 0 empty empty empty 0 -9 0 10 -262144
-1 -1 2000 1;
#X obj 1749 228 r~ filter;
#X obj 651 65 hsl 128 15 0 1 0 0 empty empty empty -2 -8 0 10 -262144
-1 -1 10160 1;
#X obj 899 81 hradio 15 0 0 5 empty empty OSC2\ Octave 0 -12 0 10 -262144
-1 -1 1;
#X obj 899 101 - 2;
#X obj 884 26 loadbang;
#X obj 789 341 +;
#X obj 808 314 * 12;
#X obj 899 123 s oscillator2_octave;
#X obj 808 289 r oscillator2_octave;
#X obj 752 579 * 2;
#X obj 726 579 / 2;
#X obj 1015 1016 +, f 1;
#X obj 1060 164 hsl 128 15 -100 100 0 0 empty empty empty -2 -8 0 10
-262144 -1 -1 9525 1;
#X obj 1060 122 loadbang;
#X obj 1060 223 s oscillator2_detune;
#X obj 81 566 netreceive 2137 1;
#X obj 1498 616 vline~;
#X obj 513 542 notein;
#X obj 513 589 s MIDI_note;
#X obj 529 566 s MIDI_velocity;
#X obj 381 836 r MIDI_note;
#X obj 381 883 stripnote;
#X obj 381 905 s note_on;
#X obj 523 684 sel 0;
#X obj 523 661 r MIDI_velocity;
#X obj 517 774 spigot;
#X obj 517 638 r MIDI_note;
#X obj 517 844 s note_off;
#X obj 1474 409 pack f f f f;
#X obj 1474 327 r note_on;
#X obj 1497 347 r attack;
#X obj 1543 387 r sustain;
#X obj 1520 367 r decay;
#X obj 1512 528 r note_off;
#X obj 1512 570 pack f f;
#X obj 1557 549 r release;
#X msg 1512 591 0 \$2;
#X obj 1498 639 s~ adsr;
#N canvas 0 0 450 300 (subpatch) 0;
#X array ADSR 1000 float 5 black #ff0000;
#A 0 0 0 0 0 0 0 0 0 0 0 0 0 0 0 0 0 0 0 0 0 0 0 0 0 0 0 0 0 0 0 0
0 0 0 0 0 0 0 0 0 0 0 0 0 0 0 0 0 0 0 0 0 0 0 0 0 0 0 0 0 0 0 0 0 0
0 0 0 0 0 0 0 0 0 0 0 0 0 0 0 0 0 0 0 0 0 0 0 0 0 0 0 0 0 0 0 0 0 0
0 0 0 0 0 0 0 0 0 0 0 0 0 0 0 0 0 0 0 0 0 0 0 0 0 0 0 0 0 0 0 0 0 0
0 0 0 0 0 0 0 0 0 0 0 0 0 0 0 0 0 0 0 0 0 0 0 0 0 0 0 0 0 0 0 0 0 0
0 0 0 0 0 0 0 0 0 0 0 0 0 0 0 0 0 0 0 0 0 0 0 0 0 0 0 0 0 0 0 0 0 0
0 0 0 0 0 0 0 0 0 0 0 0 0 0 0 0 0 0 0 0 0 0 0 0 0 0 0 0 0 0 0 0 0 0
0 0 0 0 0 0 0 0 0 0 0 0 0 0 0 0 0 0 0 0 0 0 0 0 0 0 0 0 0 0 0 0 0 0
0 0 0 0 0 0 0 0 0 0 0 0 0 0 0 0 0 0 0 0 0 0 0 0 0 0 0 0 0 0 0 0 0 0
0 0 0 0 0 0 0 0 0 0 0 0 0 0 0 0 0 0 0 0 0 0 0 0 0 0 0 0 0 0 0 0 0 0
0 0 0 0 0 0 0 0 0 0 0 0 0 0 0 0 0 0 0 0 0 0 0 0 0 0 0 0 0 0 0 0 0 0
0 0 0 0 0 0 0 0 0 0 0 0 0 0 0 0 0 0 0 0 0 0 0 0 0 0 0 0 0 0 0 0 0 0
0 0 0 0 0 0 0 0 0 0 0 0 0 0 0 0 0 0 0 0 0 0 0 0 0 0 0 0 0 0 0 0 0 0
0 0 0 0 0 0 0 0 0 0 0 0 0 0 0 0 0 0 0 0 0 0 0 0 0 0 0 0 0 0 0 0 0 0
0 0 0 0 0 0 0 0 0 0 0 0 0 0 0 0 0 0 0 0 0 0 0 0 0 0 0 0 0 0 0 0 0 0
0 0 0 0 0 0 0 0 0 0 0 0 0 0 0 0 0 0 0 0 0 0 0 0 0 0 0 0 0 0 0 0 0 0
0 0 0 0 0 0 0 0 0 0 0 0 0 0 0 0 0 0 0 0 0 0 0 0 0 0 0 0 0 0 0 0 0 0
0 0 0 0 0 0 0 0 0 0 0 0 0 0 0 0 0 0 0 0 0 0 0 0 0 0 0 0 0 0 0 0 0 0
0 0 0 0 0 0 0 0 0 0 0 0 0 0 0 0 0 0 0 0 0 0 0 0 0 0 0 0 0 0 0 0 0 0
0 0 0 0 0 0 0 0 0 0 0 0 0 0 0 0 0 0 0 0 0 0 0 0 0 0 0 0 0 0 0 0 0 0
0 0 0 0 0 0 0 0 0 0 0 0 0 0 0 0 0 0 0 0 0 0 0 0 0 0 0 0 0 0 0 0 0 0
0 0 0 0 0 0 0 0 0 0 0 0 0 0 0 0 0 0 0 0 0 0 0 0 0 0 0 0 0 0 0 0 0 0
0 0 0 0 0 0 0 0 0 0 0 0 0 0 0 0 0 0 0 0 0 0 0 0 0 0 0 0 0 0 0 0 0 0
0 0 0 0 0 0 0 0 0 0 0 0 0 0 0 0 0 0 0 0 0 0 0 0 0 0 0 0 0 0 0 0 0 0
0 0 0 0 0 0 0 0 0 0 0 0 0 0 0 0 0 0 0 0 0 0 0 0 0 0 0 0 0 0 0 0 0 0
0 0 0 0 0 0 0 0 0 0 0 0 0 0 0 0 0 0 0 0 0 0 0 0 0 0 0 0 0 0 0 0 0 0
0 0 0 0 0 0 0 0 0 0 0 0 0 0 0 0 0 0 0 0 0 0 0 0 0 0 0 0 0 0 0 0 0 0
0 0 0 0 0 0 0 0 0 0 0 0 0 0 0 0 0 0 0 0 0 0 0 0 0 0 0 0 0 0 0 0 0 0
0 0 0 0 0 0 0 0 0 0 0 0 0 0 0 0 0 0 0 0 0 0 0 0 0 0 0 0 0 0 0 0 0 0
0 0 0 0 0 0 0 0 0 0 0 0 0 0 0 0 0;
#X coords 0 1 999 0 100 100 1;
#X restore 1774 328 graph;
#X obj 1886 320 r~ adsr;
#X obj 1886 411 tabwrite~ ADSR;
#X obj 1759 278 tabwrite~ SCOPE;
#X obj 1897 363 tgl 15 0 empty empty empty 17 7 0 10 -262144 -1 -1
1 1;
#X floatatom 37 866 5 0 0 0 - - -, f 5;
#X floatatom 104 866 5 0 0 0 - - -, f 5;
#X obj 37 841 r note_on;
#X obj 104 841 r note_off;
#X obj 391 858 r MIDI_velocity;
#X obj 550 705 bng 15 250 50 0 empty empty empty 17 7 0 10 -262144
-1 -1;
#X obj 523 705 bng 15 250 50 0 empty empty empty 17 7 0 10 -262144
-1 -1;
#X obj 1398 113 vsl 15 128 10 1000 0 0 empty empty ATK 0 -9 0 10 -262144
-1 -1 0 1;
#X obj 1427 113 vsl 15 128 10 1000 0 0 empty empty DEC 0 -9 0 10 -262144
-1 -1 7569 1;
#X obj 1456 113 vsl 15 128 0 1 0 0 empty empty SUS 0 -9 0 10 -262144
-1 -1 5080 1;
#X obj 1485 113 vsl 15 128 10 1000 0 0 empty empty REL 0 -9 0 10 -262144
-1 -1 2437 1;
#X obj 1398 316 s attack;
#X obj 1427 295 s decay;
#X obj 1456 274 s sustain;
#X obj 1485 253 s release;
#X obj 1029 551 r~ adsr;
#X obj 1014 572 *~;
#X obj 639 268 r note_on;
#X obj 517 799 sel;
#X obj 563 774 r note_on;
#X obj 523 749 i;
#X obj 550 749 i;
#X obj 517 822 i;
#X obj 545 799 r MIDI_note;
#X obj 1017 752 *~ 2;
#X obj 1017 774 -~ 1;
#X obj 1015 1061 *~ 2;
#X obj 1015 1083 -~ 1;
#X obj 789 268 r oscillator2_detune;
#X obj 789 319 bng 8 250 50 0 empty empty empty 17 7 0 10 -262144 -1
-1;
#X obj 1897 383 metro 30;
#X msg 1498 503 0 1 \, 1 \$2 1 \, \$4 \$3 \$2;
#X msg 1397 503 1 \$2 \, \$4 \$3 \$2;
#X obj 1873 211 tgl 15 0 empty empty empty 17 7 0 10 -262144 -1 -1
1 1;
#X obj 1873 232 s retrig;
#X obj 1397 460 route 0 1;
#X obj 1417 387 r retrig;
#X obj 1397 435 list;
#X obj 1397 387 bng 8 250 50 0 empty empty empty 17 7 0 10 -262144
-1 -1;
#X obj 1397 411 f, f 2;
#X obj 714 742 r oscillator2_detune;
#X obj 690 640 -;
#X obj 714 990 *;
#X obj 759 640 -, f 1;
#X obj 774 901 *;
#X obj 694 768 bng 8 250 50 0 empty empty empty 17 7 0 10 -262144 -1
-1;
#X obj 714 800 f;
#X obj 694 720 r note_on;
#X obj 789 387 s oscillator2_frequency;
#X obj 726 554 r oscillator2_frequency;
#X obj 784 579 r oscillator2_frequency;
#X obj 690 533 r oscillator2_frequency;
#X obj 759 662 s oscillator2_octave_up;
#X obj 690 683 s oscillator2_octave_down;
#X obj 789 847 r oscillator2_octave_up;
#X obj 1029 994 r detune_output;
#X obj 742 944 r oscillator2_octave_down;
#X msg 533 725 1, f 1;
#X msg 565 725 0, f 1;
#X obj 766 615 bng 8 250 50 0 empty empty empty 17 7 0 10 -262144 -1
-1;
#X obj 698 615 bng 8 250 50 0 empty empty empty 17 7 0 10 -262144 -1
-1;
#X obj 774 923 s detune_up;
#X obj 714 1012 s detune_down;
#X obj 732 1056 r detune_up;
#X obj 756 1077 r detune_down;
#X obj 732 1121 +, f 1;
#X obj 740 1102 bng 8 250 50 0 empty empty empty 17 7 0 10 -262144
-1 -1;
#X obj 732 1143 s detune_output;
#X obj 724 973 bng 8 250 50 0 empty empty empty 17 7 0 10 -262144 -1
-1;
#X obj 773 872 bng 8 250 50 0 empty empty empty 17 7 0 10 -262144 -1
-1;
#X obj 714 763 / 100;
#X obj 1060 182 div;
#X floatatom 1060 203 5 0 0 0 - - -, f 5;
#X obj 714 821 moses;
#X obj 726 853 bng 8 250 50 0 empty empty empty 17 7 0 10 -262144 -1
-1;
#X msg 726 867 0;
#X obj 1873 188 loadbang;
#X obj 1811 69 loadbang;
#X msg 1820 92 20;
#X obj 1897 341 loadbang;
#X obj 1440 24 loadbang;
#X obj 1100 18 loadbang;
#X obj 649 118 loadbang;
#X msg 649 138 0.8;
#X obj 651 22 loadbang;
#X msg 651 43 0.8;
#X obj 1224 24 loadbang;
#X obj 1222 150 loadbang;
#X msg 1222 171 1;
#X obj 806 119 loadbang;
#X msg 806 139 0.8;
#X obj 1014 531 *~ 0.5;
#X msg 1397 69 10;
#X msg 1485 69 200;
#X msg 1456 69 0.4;
#X msg 1426 69 600;
#X msg 1224 46 5000;
#X msg 884 47 1;
#X msg 1060 143 50;
#X obj 647 452 hradio 15 0 0 3 empty empty Saw\ /\ Triangle\ /\ Square
0 -12 0 10 -262144 -1 -1 2;
#X obj 821 455 hradio 15 0 0 3 empty empty Saw\ /\ Triangle\ /\ Noise
0 -12 0 10 -262144 -1 -1 0;
#X obj 1673 1050 noise~;
#X obj 647 471 s oscillator1_wave;
#X obj 821 474 s oscillator2_wave;
#X obj 1662 753 -~ 0.5;
#X obj 1662 796 -~ 0.5;
#X obj 1662 817 *~ 2;
#X obj 1662 775 expr~ $v1 > 0;
#X obj 1662 732 phasor~;
#X obj 1206 1033 osc~;
#X obj 1238 1011 osc~;
#X obj 1238 990 * 3;
#X obj 1318 1011 osc~;
#X obj 1368 1011 osc~;
#X obj 1453 1011 osc~;
#X obj 1318 990 * 5;
#X obj 1368 990 * 7;
#X obj 1453 990 * 9;
#X obj 1453 1032 *~ 0.0123457;
#X obj 1532 1011 osc~;
#X obj 1532 990 * 11;
#X obj 1532 1032 *~ -0.00826446;
#X obj 1368 1032 *~ -0.0204082;
#X obj 1206 1066 *~ 0.89;
#X obj 1238 1032 *~ -0.111111;
#X obj 1318 1032 *~ 0.04;
#X obj 1206 918 r oscillator2_frequency;
#X obj 1206 961 +, f 1;
#X obj 1220 939 r detune_output;
#X obj 1207 760 osc~;
#X obj 1239 739 osc~;
#X obj 1239 718 * 3;
#X obj 1319 739 osc~;
#X obj 1369 739 osc~;
#X obj 1455 739 osc~;
#X obj 1319 718 * 5;
#X obj 1369 718 * 7;
#X obj 1455 718 * 9;
#X obj 1455 760 *~ 0.0123457;
#X obj 1535 738 osc~;
#X obj 1535 717 * 11;
#X obj 1535 759 *~ -0.00826446;
#X obj 1369 760 *~ -0.0204082;
#X obj 1239 760 *~ -0.111111;
#X obj 1319 760 *~ 0.04;
#X obj 1207 690 r oscillator1_frequency;
#X obj 639 387 s oscillator1_frequency;
#X obj 1066 729 r oscillator1_wave;
#X floatatom 1066 771 5 0 0 0 - - -, f 5;
#X obj 1066 751 == 0;
#X obj 1017 803 *~;
#X obj 1243 460 s~ filter;
#X obj 1017 708 r oscillator1_frequency;
#X floatatom 1064 1081 5 0 0 0 - - -, f 5;
#X obj 1064 1061 == 0;
#X obj 1064 1039 r oscillator2_wave;
#X obj 1015 1110 *~;
#X obj 1257 793 r oscillator1_wave;
#X floatatom 1257 835 5 0 0 0 - - -, f 5;
#X obj 1207 857 *~;
#X obj 1257 815 == 1;
#X floatatom 1256 1106 5 0 0 0 - - -, f 5;
#X obj 1206 1128 *~;
#X obj 1256 1086 == 1;
#X floatatom 1716 1049 5 0 0 0 - - -, f 5;
#X obj 1256 1066 r oscillator2_wave;
#X obj 1747 753 r oscillator1_wave;
#X floatatom 1747 795 5 0 0 0 - - -, f 5;
#X obj 1716 1009 r oscillator2_wave;
#X obj 1716 1029 == 2;
#X obj 1747 775 == 2;
#X obj 1662 849 *~;
#X obj 1673 1081 *~;
#X obj 1017 825 s~ oscillator1_saw;
#X obj 1015 1131 s~ oscillator2_saw;
#X obj 1207 879 s~ oscillator1_triangle;
#X obj 1206 1149 s~ oscillator2_triangle;
#X obj 1662 871 s~ oscillator1_square;
#X obj 1673 1103 s~ oscillator2_noise;
#X obj 1888 755 r~ oscillator1_saw;
#X obj 1898 777 r~ oscillator1_triangle;
#X obj 1909 800 r~ oscillator1_square;
#X obj 1888 821 s~ oscillator1;
#X obj 1662 712 r oscillator1_frequency;
#X obj 1881 995 r~ oscillator2_saw;
#X obj 1891 1017 r~ oscillator2_triangle;
#X obj 1902 1040 r~ oscillator2_noise;
#X obj 1881 1066 s~ oscillator2;
#X obj 1207 793 *~ 0.7;
#X obj 806 422 loadbang;
#X obj 638 419 loadbang;
#X connect 9 0 93 0;
#X connect 15 0 11 0;
#X connect 15 1 18 0;
#X connect 15 2 13 0;
#X connect 15 3 14 0;
#X connect 15 4 16 0;
#X connect 18 0 12 0;
#X connect 18 1 20 0;
#X connect 18 2 21 0;
#X connect 18 3 19 0;
#X connect 23 0 25 0;
#X connect 24 0 22 0;
#X connect 24 0 22 1;
#X connect 24 0 34 0;
#X connect 25 0 30 0;
#X connect 26 0 43 0;
#X connect 28 0 39 0;
#X connect 29 0 40 0;
#X connect 30 0 31 0;
#X connect 31 0 32 0;
#X connect 31 0 32 1;
#X connect 32 0 24 1;
#X connect 34 0 33 1;
#X connect 35 0 36 0;
#X connect 36 0 37 0;
#X connect 39 0 54 0;
#X connect 40 0 54 1;
#X connect 41 0 42 0;
#X connect 42 0 55 0;
#X connect 42 0 55 1;
#X connect 43 0 25 0;
#X connect 45 0 47 0;
#X connect 46 0 39 1;
#X connect 47 0 46 0;
#X connect 48 0 49 0;
#X connect 49 0 56 0;
#X connect 49 0 56 1;
#X connect 51 0 40 1;
#X connect 52 0 51 0;
#X connect 53 0 52 0;
#X connect 54 0 216 0;
#X connect 55 0 44 0;
#X connect 56 0 50 0;
#X connect 57 0 271 0;
#X connect 58 0 276 0;
#X connect 59 0 149 0;
#X connect 60 0 151 0;
#X connect 61 0 173 0;
#X connect 64 0 24 0;
#X connect 65 0 58 0;
#X connect 66 0 67 0;
#X connect 67 0 68 0;
#X connect 68 0 58 1;
#X connect 69 0 70 0;
#X connect 70 0 71 0;
#X connect 71 0 58 2;
#X connect 72 0 76 0;
#X connect 74 0 77 0;
#X connect 76 0 73 0;
#X connect 77 0 75 0;
#X connect 79 0 80 0;
#X connect 80 0 123 0;
#X connect 81 0 80 1;
#X connect 82 0 123 0;
#X connect 83 0 62 0;
#X connect 84 0 85 0;
#X connect 85 0 89 0;
#X connect 86 0 222 0;
#X connect 87 0 61 0;
#X connect 88 0 87 1;
#X connect 90 0 88 0;
#X connect 90 0 154 0;
#X connect 91 0 168 0;
#X connect 92 0 166 1;
#X connect 92 0 185 0;
#X connect 93 0 60 0;
#X connect 94 0 196 0;
#X connect 95 0 223 0;
#X connect 97 0 15 0;
#X connect 97 0 17 0;
#X connect 98 0 119 0;
#X connect 99 0 100 0;
#X connect 99 1 101 0;
#X connect 102 0 103 0;
#X connect 103 0 104 0;
#X connect 105 0 131 0;
#X connect 105 1 130 0;
#X connect 106 0 105 0;
#X connect 107 0 143 0;
#X connect 108 0 107 0;
#X connect 110 0 162 1;
#X connect 111 0 110 0;
#X connect 111 0 163 0;
#X connect 112 0 110 1;
#X connect 113 0 110 3;
#X connect 114 0 110 2;
#X connect 115 0 116 0;
#X connect 116 0 118 0;
#X connect 117 0 116 1;
#X connect 118 0 98 0;
#X connect 121 0 122 0;
#X connect 124 0 155 0;
#X connect 127 0 125 0;
#X connect 128 0 126 0;
#X connect 129 0 103 1;
#X connect 130 0 146 0;
#X connect 130 0 183 0;
#X connect 131 0 145 0;
#X connect 131 0 182 0;
#X connect 132 0 136 0;
#X connect 133 0 137 0;
#X connect 134 0 138 0;
#X connect 135 0 139 0;
#X connect 140 0 141 1;
#X connect 141 0 63 0;
#X connect 142 0 87 0;
#X connect 142 0 57 0;
#X connect 143 0 147 0;
#X connect 144 0 143 1;
#X connect 145 0 107 1;
#X connect 146 0 107 1;
#X connect 147 0 109 0;
#X connect 148 0 147 1;
#X connect 149 0 150 0;
#X connect 150 0 275 0;
#X connect 151 0 152 0;
#X connect 152 0 281 0;
#X connect 153 0 154 0;
#X connect 154 0 87 0;
#X connect 155 0 122 0;
#X connect 156 0 98 0;
#X connect 157 0 98 0;
#X connect 158 0 159 0;
#X connect 160 0 157 0;
#X connect 160 1 156 0;
#X connect 161 0 164 1;
#X connect 162 0 160 0;
#X connect 163 0 164 0;
#X connect 164 0 162 0;
#X connect 165 0 195 0;
#X connect 166 0 178 0;
#X connect 167 0 187 0;
#X connect 168 0 177 0;
#X connect 169 0 186 0;
#X connect 170 0 171 0;
#X connect 171 0 198 0;
#X connect 172 0 170 0;
#X connect 174 0 91 0;
#X connect 174 0 92 0;
#X connect 175 0 168 1;
#X connect 175 0 184 0;
#X connect 176 0 166 0;
#X connect 179 0 169 1;
#X connect 179 0 194 0;
#X connect 180 0 93 1;
#X connect 181 0 167 1;
#X connect 181 0 193 0;
#X connect 182 0 145 1;
#X connect 183 0 146 1;
#X connect 184 0 168 0;
#X connect 185 0 166 0;
#X connect 188 0 190 0;
#X connect 189 0 190 1;
#X connect 189 0 191 0;
#X connect 190 0 192 0;
#X connect 191 0 190 0;
#X connect 193 0 167 0;
#X connect 194 0 169 0;
#X connect 195 0 171 1;
#X connect 195 0 171 0;
#X connect 196 0 197 0;
#X connect 197 0 96 0;
#X connect 198 0 199 0;
#X connect 198 0 167 0;
#X connect 198 1 199 0;
#X connect 198 1 169 0;
#X connect 199 0 200 0;
#X connect 200 0 169 0;
#X connect 200 0 167 0;
#X connect 201 0 158 0;
#X connect 202 0 203 0;
#X connect 202 0 79 0;
#X connect 203 0 81 0;
#X connect 204 0 124 0;
#X connect 205 0 217 0;
#X connect 205 0 220 0;
#X connect 205 0 219 0;
#X connect 205 0 218 0;
#X connect 206 0 35 0;
#X connect 207 0 208 0;
#X connect 208 0 41 0;
#X connect 208 0 42 0;
#X connect 209 0 210 0;
#X connect 210 0 83 0;
#X connect 211 0 221 0;
#X connect 212 0 213 0;
#X connect 213 0 74 0;
#X connect 214 0 215 0;
#X connect 215 0 48 0;
#X connect 215 0 49 0;
#X connect 216 0 141 0;
#X connect 217 0 132 0;
#X connect 218 0 135 0;
#X connect 219 0 134 0;
#X connect 220 0 133 0;
#X connect 221 0 72 0;
#X connect 222 0 84 0;
#X connect 223 0 94 0;
#X connect 224 0 227 0;
#X connect 225 0 228 0;
#X connect 226 0 297 0;
#X connect 229 0 232 0;
#X connect 230 0 231 0;
#X connect 231 0 296 0;
#X connect 232 0 230 0;
#X connect 233 0 229 0;
#X connect 234 0 248 0;
#X connect 235 0 249 0;
#X connect 236 0 235 0;
#X connect 237 0 250 0;
#X connect 238 0 247 0;
#X connect 239 0 243 0;
#X connect 240 0 237 0;
#X connect 241 0 238 0;
#X connect 242 0 239 0;
#X connect 243 0 248 0;
#X connect 244 0 246 0;
#X connect 245 0 244 0;
#X connect 246 0 248 0;
#X connect 247 0 248 0;
#X connect 248 0 287 0;
#X connect 249 0 248 0;
#X connect 250 0 248 0;
#X connect 251 0 252 0;
#X connect 252 0 234 0;
#X connect 252 0 236 0;
#X connect 252 0 240 0;
#X connect 252 0 241 0;
#X connect 252 0 242 0;
#X connect 252 0 245 0;
#X connect 253 0 252 1;
#X connect 254 0 313 0;
#X connect 255 0 268 0;
#X connect 256 0 255 0;
#X connect 257 0 269 0;
#X connect 258 0 267 0;
#X connect 259 0 263 0;
#X connect 260 0 257 0;
#X connect 261 0 258 0;
#X connect 262 0 259 0;
#X connect 263 0 313 0;
#X connect 264 0 266 0;
#X connect 265 0 264 0;
#X connect 266 0 313 0;
#X connect 267 0 313 0;
#X connect 268 0 313 0;
#X connect 269 0 313 0;
#X connect 270 0 254 0;
#X connect 270 0 256 0;
#X connect 270 0 260 0;
#X connect 270 0 261 0;
#X connect 270 0 262 0;
#X connect 270 0 265 0;
#X connect 272 0 274 0;
#X connect 273 0 275 1;
#X connect 274 0 273 0;
#X connect 275 0 298 0;
#X connect 277 0 59 0;
#X connect 278 0 281 1;
#X connect 279 0 278 0;
#X connect 280 0 279 0;
#X connect 281 0 299 0;
#X connect 282 0 285 0;
#X connect 283 0 284 1;
#X connect 284 0 300 0;
#X connect 285 0 283 0;
#X connect 286 0 287 1;
#X connect 287 0 301 0;
#X connect 288 0 286 0;
#X connect 289 0 297 1;
#X connect 290 0 288 0;
#X connect 291 0 295 0;
#X connect 292 0 296 1;
#X connect 293 0 294 0;
#X connect 294 0 289 0;
#X connect 295 0 292 0;
#X connect 296 0 302 0;
#X connect 297 0 303 0;
#X connect 304 0 307 0;
#X connect 305 0 307 0;
#X connect 306 0 307 0;
#X connect 308 0 233 0;
#X connect 309 0 312 0;
#X connect 310 0 312 0;
#X connect 311 0 312 0;
#X connect 313 0 284 0;
#X connect 314 0 225 0;
#X connect 315 0 224 0;
